# xmcd
#
# Track frame offsets:
#  150
#  21839
#  48617
#  71696
#  96139
#  113349
#  127808
#  150855
#  173732
#  193618
#  216357
#  244813
#
# Disc length: 3476 seconds
#
# Revision: 0
# Processed by: cddbd v1.5.1PL2 Copyright (c) Steve Scherf et al.
# Submitted via: Collectorz.com_Music_Collector 6.11
#
DISCID=980d920c
DTITLE=Melissa Etheridge - München-Unterföhring, Theaterfabrik - 16 Nov 1989 [CD1)
DYEAR=1989
DGENRE=Rock
TTITLE0=The Angels
TTITLE1=Used To Love To Dance
TTITLE2=Testify
TTITLE3=Chrome Plated Heart
TTITLE4=Sleep While I Drive
TTITLE5=Occasionally
TTITLE6=Similar Features
TTITLE7=Back Door
TTITLE8=No Souvenirs
TTITLE9=Precious Pain
TTITLE10=Brave And Crazy
TTITLE11=Skin Deep
EXTD=
EXTT0=
EXTT1=
EXTT2=
EXTT3=
EXTT4=
EXTT5=
EXTT6=
EXTT7=
EXTT8=
EXTT9=
EXTT10=
EXTT11=
PLAYORDER=
